<?xml version="1.0" encoding="utf-8"?>
<!-- Generator: Adobe Illustrator 19.2.1, SVG Export Plug-In . SVG Version: 6.00 Build 0)  -->
<svg version="1.1" id="Layer_1" xmlns="http://www.w3.org/2000/svg" xmlns:xlink="http://www.w3.org/1999/xlink" x="0px" y="0px"
	 viewBox="0 0 200 55" style="enable-background:new 0 0 200 55;" xml:space="preserve">
<style type="text/css">
	.st0{fill:#FFFFFF;}
	.st1{fill:#F6921E;}
</style>
<g>
	<rect x="77.3" y="5.3" class="st0" width="3" height="34.4"/>
	<rect x="77.3" y="0.6" class="st1" width="3" height="3"/>
	<rect x="197" y="36.8" class="st1" width="3" height="3"/>
	<path class="st0" d="M117.8,34.3c-3.9,3.9-9.1,5.9-14.2,5.9c-13.2,0-20.1-9.2-20.1-19.8c-0.2-10.5,6.6-20.2,20-20.2
		c5.1,0,10.3,2,14.2,5.9l-2.1,1.8c-3.4-3.4-7.8-5-12.2-5c-11.4,0-17.3,8-17.2,17.4c0.1,9.2,5.9,17.1,17.2,17.1c4.4,0,8.9-1.7,12.2-5
		L117.8,34.3z"/>
	<path class="st0" d="M159.2,20.2c-0.1,10.3-6.6,20.2-19.7,20.2s-19.7-9.9-19.7-20.3c0-10.5,6.5-20.1,19.7-20.1
		C152.6,0,159.2,9.7,159.2,20.2 M122.7,20.2c0.1,8.8,5.6,17.4,16.8,17.4s16.8-8.6,16.8-17.4c0-9.1-5.6-17.4-16.8-17.4
		C128.2,2.8,122.6,11,122.7,20.2"/>
	<polygon class="st0" points="197,5 182.1,27.9 181.1,27.9 166,5 166,39.7 163,39.7 163,0.6 166.5,0.6 181.5,23.4 196.3,0.6 
		200,0.6 200,35 197,35 	"/>
	<path class="st0" d="M65.8,19.7c3.9-1.2,6.4-4.4,6.4-8.4c0-7.4-6.3-10.7-12.9-10.7h-16v33.7c0.9,0.2,1.9,0.3,2.7,0.3l0,0
		c0.1,0,0.2,0,0.3,0V21.2h13.4c5.3,0,10.8,2.2,10.8,8.3c0,6.2-6.3,7.4-11.2,7.4h-1.6c-1.4,1.1-2.6,1.8-3.7,2.4
		c-0.3,0.2-0.7,0.3-1.1,0.5h6.4c6.7,0,14.2-2.2,14.2-10.2C73.5,25,70.7,21,65.8,19.7 M46.3,18.3V3.2h13c4.9,0,10,2.4,10,8.1
		c0,5.6-4.9,7-9.6,7H46.3z"/>
	<path class="st0" d="M24.9,36.9c-1.6,0.4-3.3,0.7-5.2,0.7c-4.2,0-7.7-1.3-10.3-3.3c-0.1,0-0.2,0-0.3,0.1c-1,0.2-2.1,0.5-3.1,0.9
		c3.3,3.1,7.8,5.1,13.7,5.1c3.5,0,6.5-0.7,9.1-1.9c-0.7-0.3-1.4-0.6-2.1-0.8C26.1,37.4,25.5,37.1,24.9,36.9"/>
	<path class="st0" d="M5.8,30.4C3.9,27.4,3,23.8,3,20.2C2.9,11,8.5,2.8,19.7,2.8s16.8,8.3,16.8,17.4c0,4.3-1.3,8.5-4,11.7
		c1,0.3,2.1,0.5,3.1,0.8c2.5-3.6,3.8-8,3.8-12.5C39.5,9.7,32.9,0,19.7,0S0,9.6,0,20.1c0,4,1,8,3,11.4l0.7-0.3
		C4.4,30.9,5.1,30.6,5.8,30.4"/>
	<path class="st1" d="M60.5,31.6c-1.1,1.3-1.1,1.6-3.5,3.5c-1.2,1-2.4,1.8-3.8,2.5c-1.3,0.7-2.9,1.2-4.6,1.5
		c-1.7,0.4-3.8,0.5-6.3,0.5c-1.8,0-3.6-0.2-5.3-0.6c-1.7-0.4-3.3-0.8-4.9-1.4c-1.6-0.6-3.2-1.2-4.8-1.8c-1.6-0.7-3.2-1.3-4.8-1.8
		c-1.6-0.6-3.3-1-5-1.4S14,32.1,12.1,32c-1.2,0-2.4,0.1-3.5,0.4s-2.9,0.8-4,1.2L4,32.9c1.7-0.8,3.8-1.4,5.4-1.7
		c1.6-0.3,3.5-0.5,5.6-0.5c2.7,0,5.5,0.3,8.3,0.9s5.5,1.2,8.1,1.9s5.2,1.3,7.7,1.8c2.5,0.6,4.7,1,6.9,1.1c1.6,0,3-0.1,4.3-0.3
		c1.2-0.2,2.5-0.8,3.5-1.2s2-1,3-1.6c0.9-0.6,1.9-1.4,2.8-2.2L60.5,31.6z"/>
	<path class="st0" d="M6.4,45.1v9.3h-1v-3.7c0-0.7,0-1.3,0-1.8s0-0.9,0.1-1.2c0-0.3,0.1-0.5,0.1-0.7v-0.2l0,0c0,0-0.1,0.1-0.1,0.4
		c-0.1,0.3-0.2,0.6-0.3,1.1L4,51.8H3.4l-1.3-3.5c-0.2-0.4-0.3-0.8-0.3-1.1c-0.1-0.3-0.1-0.4-0.1-0.4l0,0V47c0,0.1,0,0.4,0.1,0.7
		c0,0.3,0.1,0.7,0.1,1.2s0,1.1,0,1.8v3.7h-1v-9.2h0.9l1.5,4.2c0.1,0.4,0.2,0.7,0.2,0.9s0,0.3,0.1,0.3l0,0c0,0,0-0.1,0-0.3
		s0.1-0.5,0.2-0.9l1.5-4.2L6.4,45.1L6.4,45.1z"/>
	<path class="st0" d="M12.7,51.9h-2.6l-0.6,2.4h-1l2.3-9.2H12l2.3,9.2h-1L12.7,51.9z M12.5,50.9l-0.9-3.7c-0.1-0.4-0.1-0.7-0.2-0.9
		c0-0.2,0-0.3,0-0.3l0,0c0,0,0,0.1,0,0.3s-0.1,0.5-0.2,0.9L10.3,51L12.5,50.9L12.5,50.9z"/>
	<path class="st0" d="M19.9,54.3l-1.4-3.5c-0.1,0-0.1,0-0.2,0h-0.2h-0.7v3.5h-1v-9.2h1.7c0.4,0,0.8,0.1,1.1,0.2
		c0.3,0.1,0.6,0.3,0.8,0.6s0.4,0.6,0.6,0.9c0.1,0.4,0.2,0.8,0.2,1.2c0,0.6-0.1,1.1-0.4,1.5s-0.6,0.8-1,1l1.6,3.8H19.9z M18.1,49.9
		L18.1,49.9c0.5,0,0.9-0.2,1.2-0.5c0.3-0.4,0.5-0.8,0.5-1.4c0-0.3,0-0.6-0.1-0.8s-0.2-0.4-0.3-0.6c-0.1-0.2-0.3-0.3-0.5-0.4
		c-0.2-0.1-0.4-0.1-0.7-0.1h-0.7V50L18.1,49.9L18.1,49.9z"/>
	<path class="st0" d="M27.4,54.3l-2.5-4.6l-0.7,1v3.7h-1v-9.2h1v2.5v0.6v0.6v0.4v0.2l0,0l0.1-0.1c0-0.1,0.1-0.2,0.2-0.3
		s0.2-0.2,0.3-0.4c0.1-0.1,0.2-0.3,0.3-0.5l2.1-3h1.2L25.6,49l3,5.5h-1.2V54.3z"/>
	<path class="st0" d="M34.1,51.9h-2.6l-0.6,2.4h-1l2.3-9.2h1.2l2.3,9.2h-1L34.1,51.9z M33.9,50.9L33,47.2c-0.1-0.4-0.1-0.7-0.2-0.9
		c0-0.2,0-0.3,0-0.3l0,0c0,0,0,0.1,0,0.3s-0.1,0.5-0.2,0.9L31.7,51L33.9,50.9L33.9,50.9z"/>
	<path class="st0" d="M44.6,51.9H42l-0.6,2.4h-1l2.3-9.2h1.2l2.3,9.2h-1L44.6,51.9z M44.4,50.9l-0.9-3.7c-0.1-0.4-0.1-0.7-0.2-0.9
		c0-0.2,0-0.3,0-0.3l0,0c0,0,0,0.1,0,0.3s-0.1,0.5-0.2,0.9L42.2,51L44.4,50.9L44.4,50.9z"/>
	<path class="st0" d="M53.1,45.1v9.3h-0.9l-2.5-5.9c-0.1-0.1-0.1-0.3-0.2-0.5c-0.1-0.2-0.1-0.3-0.2-0.5c-0.1-0.1-0.1-0.3-0.1-0.4
		L49.1,47l0,0v0.2c0,0.1,0,0.3,0.1,0.5c0,0.2,0.1,0.5,0.1,0.8s0,0.6,0,1v4.8h-1v-9.2h0.9l2.5,5.9c0.1,0.2,0.1,0.3,0.2,0.5
		c0.1,0.2,0.1,0.3,0.1,0.4c0,0.1,0.1,0.2,0.1,0.3v0.1l0,0v-0.2c0-0.1,0-0.3,0-0.5s0-0.5,0-0.8s0-0.6,0-1V45L53.1,45.1L53.1,45.1z"/>
	<path class="st0" d="M59.4,51.9h-2.6l-0.6,2.4h-1l2.3-9.2h1.2l2.3,9.2h-1L59.4,51.9z M59.2,50.9l-0.9-3.7c-0.1-0.4-0.1-0.7-0.2-0.9
		c0-0.2,0-0.3,0-0.3l0,0c0,0,0,0.1,0,0.3s-0.1,0.5-0.2,0.9L57,50.9H59.2z"/>
	<polygon class="st0" points="67.1,53.3 67.1,54.3 63.1,54.3 63.1,45.1 64.1,45.1 64.1,53.3 	"/>
	<path class="st0" d="M69.6,44.2c-0.1,0-0.3-0.1-0.4-0.2c-0.1-0.1-0.1-0.3-0.1-0.4c0-0.2,0.1-0.3,0.1-0.4c0.1-0.1,0.2-0.2,0.4-0.2
		c0.1,0,0.3,0.1,0.4,0.2c0.1,0.1,0.1,0.3,0.1,0.4c0,0.2,0,0.3-0.1,0.4C69.9,44.2,69.8,44.2,69.6,44.2L69.6,44.2z M69.1,45.1h1v9.2
		h-1V45.1z"/>
	<path class="st0" d="M77.2,46L74,52.5c-0.1,0.2-0.2,0.4-0.3,0.6c-0.1,0.2-0.1,0.2-0.1,0.3l0,0c0,0,0.1,0,0.3,0c0.2,0,0.4,0,0.8,0
		h2.6v1h-4.7v-0.9l3.3-6.6c0-0.1,0.1-0.2,0.1-0.2c0.1-0.1,0.1-0.2,0.2-0.2c0.1-0.1,0.1-0.1,0.1-0.2l0.1-0.1l0,0c0,0-0.1,0-0.4,0
		c-0.2,0-0.5,0-0.8,0h-2.4v-1h4.6V46H77.2z"/>
	<path class="st0" d="M88.7,49.9L87.4,50v1.6c0,0.9-0.2,1.7-0.6,2.2s-1.1,0.8-2,0.8c-0.4,0-0.7-0.1-1-0.2c-0.3-0.1-0.6-0.3-0.8-0.5
		c-0.2-0.2-0.4-0.5-0.5-0.8s-0.2-0.7-0.2-1c0-0.4,0.1-0.7,0.2-1s0.3-0.5,0.4-0.7c0.2-0.2,0.4-0.4,0.6-0.5s0.4-0.2,0.6-0.2l0,0
		c-0.2,0-0.3-0.1-0.5-0.2c-0.2-0.1-0.4-0.3-0.5-0.5c-0.2-0.2-0.3-0.4-0.4-0.7s-0.2-0.5-0.2-0.9s0.1-0.8,0.2-1.1s0.3-0.6,0.5-0.8
		s0.5-0.3,0.8-0.4c0.3-0.1,0.6-0.1,0.9-0.1c0.6,0,1.1,0.2,1.5,0.5c0.4,0.4,0.7,0.9,0.9,1.6l-0.9,0.2c-0.1-0.5-0.3-0.8-0.5-1.1
		s-0.5-0.4-1-0.4c-0.4,0-0.8,0.1-1,0.4c-0.3,0.3-0.4,0.6-0.4,1.2c0,0.2,0,0.4,0.1,0.7c0.1,0.2,0.2,0.4,0.3,0.6
		c0.1,0.2,0.3,0.3,0.6,0.4c0.2,0.1,0.5,0.1,0.8,0.1h3.5v0.7C88.8,49.9,88.7,49.9,88.7,49.9z M86.6,49.9h-1.3c-0.6,0-1.1,0.2-1.4,0.5
		c-0.3,0.4-0.5,0.8-0.5,1.4c0,0.5,0.1,0.9,0.4,1.2s0.7,0.5,1.2,0.5s0.9-0.2,1.2-0.5c0.3-0.3,0.4-0.8,0.4-1.6
		C86.6,51.4,86.6,49.9,86.6,49.9z"/>
	<path class="st0" d="M97.4,47.2L97.4,47.2c-0.2-0.4-0.3-0.8-0.6-1c-0.2-0.3-0.5-0.4-0.9-0.4s-0.6,0.1-0.8,0.4
		c-0.2,0.2-0.3,0.5-0.3,0.9c0,0.2,0.1,0.4,0.1,0.6c0.1,0.2,0.2,0.4,0.4,0.5c0.2,0.2,0.3,0.3,0.6,0.5c0.2,0.2,0.4,0.3,0.6,0.5
		c0.3,0.2,0.5,0.4,0.7,0.6c0.2,0.2,0.4,0.4,0.6,0.6c0.2,0.2,0.3,0.5,0.4,0.7c0.1,0.3,0.1,0.5,0.1,0.8s-0.1,0.7-0.2,1
		s-0.3,0.5-0.5,0.8c-0.2,0.2-0.4,0.4-0.7,0.5c-0.3,0.1-0.6,0.2-0.9,0.2c-0.8,0-1.3-0.2-1.7-0.6c-0.4-0.4-0.6-1-0.8-1.7l0.9-0.2
		c0.1,0.6,0.3,1,0.5,1.3c0.3,0.3,0.6,0.4,1.1,0.4c0.4,0,0.7-0.1,0.9-0.4c0.2-0.3,0.4-0.6,0.4-1c0-0.2,0-0.4-0.1-0.6
		c-0.1-0.2-0.2-0.4-0.3-0.5c-0.1-0.2-0.3-0.4-0.5-0.5c-0.2-0.2-0.4-0.4-0.7-0.6c-0.3-0.2-0.5-0.4-0.7-0.6c-0.2-0.2-0.4-0.4-0.6-0.6
		c-0.2-0.2-0.3-0.5-0.4-0.7c-0.1-0.3-0.2-0.5-0.2-0.8s0.1-0.6,0.1-0.8c0.1-0.3,0.2-0.5,0.4-0.7c0.2-0.2,0.4-0.4,0.7-0.5
		c0.3-0.1,0.6-0.2,0.9-0.2c0.6,0,1.2,0.2,1.5,0.6c0.4,0.4,0.6,0.9,0.8,1.5H97.4z"/>
	<polygon class="st0" points="104.9,45.1 104.9,46 102.9,46 102.9,54.3 101.9,54.3 101.9,46 99.9,46 99.9,45.1 	"/>
	<path class="st0" d="M110.5,54.3l-1.4-3.5c-0.1,0-0.1,0-0.2,0h-0.2H108v3.5h-1v-9.2h1.7c0.4,0,0.8,0.1,1.1,0.2
		c0.3,0.1,0.6,0.3,0.8,0.6c0.2,0.3,0.4,0.6,0.6,0.9s0.2,0.8,0.2,1.2c0,0.6-0.1,1.1-0.4,1.5c-0.2,0.4-0.6,0.8-1,1l1.6,3.8H110.5z
		 M108.7,49.9L108.7,49.9c0.5,0,0.9-0.2,1.2-0.5c0.3-0.4,0.5-0.8,0.5-1.4c0-0.3,0-0.6-0.1-0.8s-0.2-0.4-0.3-0.6
		c-0.1-0.2-0.3-0.3-0.5-0.4c-0.2-0.1-0.4-0.1-0.7-0.1h-0.7V50L108.7,49.9L108.7,49.9z"/>
	<path class="st0" d="M117.4,51.9h-2.6l-0.6,2.4h-1l2.3-9.2h1.2l2.3,9.2h-1L117.4,51.9z M117.2,50.9l-0.9-3.7
		c-0.1-0.4-0.1-0.7-0.2-0.9c0-0.2,0-0.3,0-0.3l0,0c0,0,0,0.1,0,0.3s-0.1,0.5-0.2,0.9L115,51L117.2,50.9L117.2,50.9z"/>
	<polygon class="st0" points="125.4,45.1 125.4,46 123.4,46 123.4,54.3 122.4,54.3 122.4,46 120.4,46 120.4,45.1 	"/>
	<polygon class="st0" points="131.4,53.3 131.4,54.3 127.5,54.3 127.5,45.1 131.3,45.1 131.3,46 128.5,46 128.5,48.9 130.5,48.9 
		130.5,49.9 128.5,49.9 128.5,53.3 	"/>
	<path class="st0" d="M137.8,45.1v6.6c0,0.9-0.2,1.6-0.6,2.1c-0.4,0.5-1,0.7-1.8,0.7c-0.7,0-1.2-0.2-1.6-0.6
		c-0.4-0.4-0.6-0.9-0.7-1.7l1-0.3c0.1,0.5,0.2,0.9,0.4,1.1c0.2,0.3,0.6,0.4,1,0.4c0.5,0,0.8-0.1,1.1-0.4c0.2-0.3,0.4-0.7,0.4-1.3V45
		L137.8,45.1L137.8,45.1L137.8,45.1z"/>
	<path class="st0" d="M140.8,44.2c-0.1,0-0.3-0.1-0.4-0.2c-0.1-0.1-0.1-0.3-0.1-0.4c0-0.2,0.1-0.3,0.1-0.4c0.1-0.1,0.2-0.2,0.4-0.2
		c0.1,0,0.3,0.1,0.4,0.2c0.1,0.1,0.1,0.3,0.1,0.4c0,0.2,0,0.3-0.1,0.4C141.1,44.2,141,44.2,140.8,44.2L140.8,44.2z M140.4,45.1h1
		v9.2h-1V45.1z"/>
	<path class="st0" d="M150.6,47.2L150.6,47.2c-0.2-0.4-0.3-0.8-0.6-1c-0.2-0.3-0.5-0.4-0.9-0.4s-0.6,0.1-0.8,0.4
		c-0.2,0.2-0.3,0.5-0.3,0.9c0,0.2,0.1,0.4,0.1,0.6c0.1,0.2,0.2,0.4,0.4,0.5c0.2,0.2,0.3,0.3,0.6,0.5c0.2,0.2,0.4,0.3,0.6,0.5
		c0.3,0.2,0.5,0.4,0.7,0.6c0.2,0.2,0.4,0.4,0.6,0.6c0.2,0.2,0.3,0.5,0.4,0.7c0.1,0.3,0.1,0.5,0.1,0.8s-0.1,0.7-0.2,1
		c-0.1,0.3-0.3,0.5-0.5,0.8c-0.2,0.2-0.4,0.4-0.7,0.5s-0.6,0.2-0.9,0.2c-0.8,0-1.3-0.2-1.7-0.6c-0.4-0.4-0.6-1-0.8-1.7l0.9-0.2
		c0.1,0.6,0.3,1,0.5,1.3c0.3,0.3,0.6,0.4,1.1,0.4c0.4,0,0.7-0.1,0.9-0.4c0.2-0.3,0.4-0.6,0.4-1c0-0.2,0-0.4-0.1-0.6
		c-0.1-0.2-0.2-0.4-0.3-0.5c-0.1-0.2-0.3-0.4-0.5-0.5c-0.2-0.2-0.4-0.4-0.7-0.6c-0.3-0.2-0.5-0.4-0.7-0.6c-0.2-0.2-0.4-0.4-0.6-0.6
		c-0.2-0.2-0.3-0.5-0.4-0.7c-0.1-0.3-0.2-0.5-0.2-0.8s0.1-0.6,0.1-0.8c0.1-0.3,0.2-0.5,0.4-0.7s0.4-0.4,0.7-0.5s0.6-0.2,0.9-0.2
		c0.6,0,1.2,0.2,1.5,0.6c0.4,0.4,0.6,0.9,0.8,1.5H150.6z"/>
	<polygon class="st0" points="158.1,45.1 158.1,46 156.1,46 156.1,54.3 155.1,54.3 155.1,46 153.1,46 153.1,45.1 	"/>
	<path class="st0" d="M164.9,45.1v6.6c0,0.9-0.2,1.6-0.6,2.1c-0.4,0.5-1,0.7-1.8,0.7s-1.4-0.2-1.8-0.7c-0.4-0.5-0.6-1.2-0.6-2.1
		v-6.6h1v6.6c0,0.6,0.1,1,0.3,1.4c0.2,0.3,0.6,0.5,1.1,0.5s0.8-0.2,1.1-0.5c0.2-0.3,0.4-0.8,0.4-1.4v-6.6H164.9z M161.5,44.3
		c-0.1,0-0.3-0.1-0.4-0.2c-0.1-0.1-0.1-0.3-0.1-0.5s0.1-0.4,0.1-0.5c0.1-0.1,0.2-0.2,0.4-0.2c0.1,0,0.3,0.1,0.4,0.2
		c0.1,0.1,0.1,0.3,0.1,0.5s0,0.4-0.1,0.5C161.8,44.2,161.6,44.3,161.5,44.3L161.5,44.3z M163.1,44.1c-0.1-0.1-0.1-0.3-0.1-0.5
		s0.1-0.4,0.1-0.5c0.1-0.1,0.2-0.2,0.4-0.2c0.1,0,0.3,0.1,0.4,0.2c0.1,0.1,0.1,0.3,0.1,0.5s0,0.4-0.1,0.5s-0.2,0.2-0.4,0.2
		S163.2,44.2,163.1,44.1"/>
	<path class="st0" d="M169,45.1L169,45.1c1.1,0,2,0.4,2.5,1.2s0.8,2,0.8,3.4c0,1.5-0.3,2.6-0.8,3.4c-0.5,0.8-1.3,1.1-2.4,1.1h-1.7
		V45L169,45.1L169,45.1z M169.3,53.3L169.3,53.3c0.4,0,0.7-0.1,1-0.2c0.3-0.2,0.5-0.4,0.6-0.7s0.3-0.7,0.3-1.1
		c0.1-0.4,0.1-1,0.1-1.5c0-1.3-0.2-2.2-0.5-2.8s-0.9-0.9-1.6-0.9h-0.7v7.3L169.3,53.3L169.3,53.3z"/>
	<path class="st0" d="M179.5,45.1l-2.3,5.2v4h-1v-4l-2.3-5.2h1l1.4,3.1c0.2,0.4,0.3,0.7,0.3,0.9c0.1,0.2,0.1,0.3,0.1,0.3l0,0
		c0,0,0-0.1,0.1-0.3s0.2-0.5,0.3-0.9l1.4-3.1H179.5z"/>
	<path class="st0" d="M181.1,49.7c0-1.7,0.2-2.9,0.6-3.7c0.4-0.8,1.1-1.1,2-1.1s1.6,0.4,2,1.2s0.6,2,0.6,3.6c0,1.7-0.2,2.9-0.6,3.7
		c-0.4,0.8-1.1,1.1-2,1.1s-1.6-0.4-2-1.2C181.4,52.6,181.1,51.3,181.1,49.7L181.1,49.7z M182.2,49.7c0,0.7,0,1.3,0.1,1.8
		s0.2,0.9,0.3,1.2s0.3,0.5,0.5,0.7c0.2,0.1,0.4,0.2,0.7,0.2c0.6,0,1-0.3,1.2-0.9c0.2-0.6,0.4-1.6,0.4-2.9c0-0.7,0-1.3-0.1-1.8
		s-0.2-0.9-0.3-1.2s-0.3-0.5-0.5-0.7c-0.2-0.1-0.4-0.2-0.7-0.2c-0.6,0-1,0.3-1.2,0.9C182.3,47.4,182.2,48.3,182.2,49.7L182.2,49.7z"
		/>
	<path class="st0" d="M191.9,47.2L191.9,47.2c-0.2-0.4-0.3-0.8-0.6-1c-0.2-0.3-0.5-0.4-0.9-0.4s-0.6,0.1-0.8,0.4
		c-0.2,0.2-0.3,0.5-0.3,0.9c0,0.2,0.1,0.4,0.1,0.6c0.1,0.2,0.2,0.4,0.4,0.5c0.2,0.2,0.3,0.3,0.6,0.5c0.2,0.2,0.4,0.3,0.6,0.5
		c0.3,0.2,0.5,0.4,0.7,0.6c0.2,0.2,0.4,0.4,0.6,0.6c0.2,0.2,0.3,0.5,0.4,0.7c0.1,0.3,0.1,0.5,0.1,0.8s-0.1,0.7-0.2,1
		c-0.1,0.3-0.3,0.5-0.5,0.8c-0.2,0.2-0.4,0.4-0.7,0.5s-0.6,0.2-0.9,0.2c-0.8,0-1.3-0.2-1.7-0.6c-0.4-0.4-0.6-1-0.8-1.7l0.9-0.2
		c0.1,0.6,0.2,1,0.5,1.3s0.6,0.4,1.1,0.4c0.4,0,0.7-0.1,0.9-0.4c0.2-0.3,0.4-0.6,0.4-1c0-0.2,0-0.4-0.1-0.6
		c-0.1-0.2-0.2-0.4-0.3-0.5c-0.1-0.2-0.3-0.4-0.5-0.5c-0.2-0.2-0.4-0.4-0.7-0.6c-0.3-0.2-0.5-0.4-0.7-0.6c-0.2-0.2-0.4-0.4-0.6-0.6
		c-0.2-0.2-0.3-0.5-0.4-0.7c-0.1-0.3-0.2-0.5-0.2-0.8s0.1-0.6,0.1-0.8c0.1-0.3,0.2-0.5,0.4-0.7s0.4-0.4,0.7-0.5s0.6-0.2,0.9-0.2
		c0.6,0,1.2,0.2,1.5,0.6c0.4,0.4,0.6,0.9,0.8,1.5H191.9z"/>
	<path class="st0" d="M199.8,45.1v6.6c0,0.9-0.2,1.6-0.6,2.1c-0.4,0.5-1,0.7-1.8,0.7s-1.4-0.2-1.8-0.7c-0.4-0.5-0.6-1.2-0.6-2.1
		v-6.6h1v6.6c0,0.6,0.1,1,0.3,1.4c0.2,0.3,0.6,0.5,1.1,0.5s0.8-0.2,1.1-0.5c0.2-0.3,0.4-0.8,0.4-1.4v-6.6H199.8z"/>
</g>
</svg>
